<svg width="128" height="128" viewBox="0 0 128 128" fill="none" xmlns="http://www.w3.org/2000/svg">
<path d="M10.6667 106.667C13.1264 110.093 17.1163 112.088 21.3334 112C25.5505 112.088 29.5405 110.093 32.0001 106.667C34.4597 103.24 38.4496 101.245 42.6667 101.333C46.8839 101.245 50.8738 103.24 53.3334 106.667C55.793 110.093 59.783 112.088 64.0001 112C68.2172 112.088 72.2071 110.093 74.6667 106.667C77.1264 103.24 81.1163 101.245 85.3334 101.333C89.5505 101.245 93.5405 103.24 96.0001 106.667C98.4597 110.093 102.45 112.088 106.667 112C110.884 112.088 114.874 110.093 117.333 106.667" stroke="#7EA5EF" stroke-width="6" stroke-linecap="round" stroke-linejoin="round"/>
<path d="M10.6667 85.3332C13.1264 88.7599 17.1163 90.7549 21.3334 90.6665C25.5505 90.7549 29.5405 88.7599 32.0001 85.3332C34.4597 81.9065 38.4496 79.9115 42.6667 79.9999C46.8839 79.9115 50.8738 81.9065 53.3334 85.3332C55.793 88.7599 59.783 90.7549 64.0001 90.6665C68.2172 90.7549 72.2071 88.7599 74.6667 85.3332C77.1264 81.9065 81.1163 79.9115 85.3334 79.9999C89.5505 79.9115 93.5405 81.9065 96.0001 85.3332C98.4597 88.7599 102.45 90.7549 106.667 90.6665C110.884 90.7549 114.874 88.7599 117.333 85.3332" stroke="#7EA5EF" stroke-width="6" stroke-linecap="round" stroke-linejoin="round"/>
<path d="M80 64V24C80 19.5817 83.5817 16 88 16C92.4183 16 96 19.5817 96 24" stroke="#2869E4" stroke-width="6" stroke-linecap="round" stroke-linejoin="round"/>
<path d="M48 64V24C48 19.5817 44.4183 16 40 16C35.5817 16 32 19.5817 32 24" stroke="#2869E4" stroke-width="6" stroke-linecap="round" stroke-linejoin="round"/>
<path d="M80 26.6667H48" stroke="#2869E4" stroke-width="6" stroke-linecap="round" stroke-linejoin="round"/>
<path d="M48 53.3332H80" stroke="#2869E4" stroke-width="6" stroke-linecap="round" stroke-linejoin="round"/>
</svg>
