<svg width="88" height="13" viewBox="0 0 88 13" fill="none" xmlns="http://www.w3.org/2000/svg">
<path d="M11.5186 6.18182C11.5186 7.47727 11.2667 8.57008 10.7629 9.46023C10.2591 10.3466 9.57918 11.0189 8.72312 11.4773C7.86706 11.9318 6.91252 12.1591 5.85949 12.1591C4.79888 12.1591 3.84055 11.9299 2.98449 11.4716C2.13221 11.0095 1.45418 10.3352 0.950395 9.44886C0.450395 8.55871 0.200395 7.4697 0.200395 6.18182C0.200395 4.88636 0.450395 3.79545 0.950395 2.90909C1.45418 2.01894 2.13221 1.34659 2.98449 0.892045C3.84055 0.433712 4.79888 0.204545 5.85949 0.204545C6.91252 0.204545 7.86706 0.433712 8.72312 0.892045C9.57918 1.34659 10.2591 2.01894 10.7629 2.90909C11.2667 3.79545 11.5186 4.88636 11.5186 6.18182ZM8.26858 6.18182C8.26858 5.48485 8.17577 4.89773 7.99017 4.42045C7.80835 3.93939 7.53752 3.57576 7.17767 3.32955C6.82161 3.07955 6.38221 2.95455 5.85949 2.95455C5.33676 2.95455 4.89547 3.07955 4.53562 3.32955C4.17956 3.57576 3.90873 3.93939 3.72312 4.42045C3.5413 4.89773 3.4504 5.48485 3.4504 6.18182C3.4504 6.87879 3.5413 7.4678 3.72312 7.94886C3.90873 8.42614 4.17956 8.78977 4.53562 9.03977C4.89547 9.28598 5.33676 9.40909 5.85949 9.40909C6.38221 9.40909 6.82161 9.28598 7.17767 9.03977C7.53752 8.78977 7.80835 8.42614 7.99017 7.94886C8.17577 7.4678 8.26858 6.87879 8.26858 6.18182ZM12.9802 12V0.363636H18.003C18.8666 0.363636 19.6223 0.534091 20.27 0.875C20.9177 1.21591 21.4215 1.69508 21.7814 2.3125C22.1412 2.92992 22.3211 3.65151 22.3211 4.47727C22.3211 5.31061 22.1355 6.0322 21.7643 6.64205C21.3969 7.25189 20.8798 7.72159 20.2132 8.05114C19.5503 8.38068 18.7757 8.54545 17.8893 8.54545H14.8893V6.09091H17.253C17.6242 6.09091 17.9405 6.02652 18.2018 5.89773C18.467 5.76515 18.6696 5.57765 18.8098 5.33523C18.9537 5.0928 19.0257 4.80682 19.0257 4.47727C19.0257 4.14394 18.9537 3.85985 18.8098 3.625C18.6696 3.38636 18.467 3.20455 18.2018 3.07955C17.9405 2.95076 17.6242 2.88636 17.253 2.88636H16.1393V12H12.9802ZM29.753 4C29.7226 3.62121 29.5806 3.32576 29.3268 3.11364C29.0768 2.90151 28.6961 2.79545 28.1848 2.79545C27.859 2.79545 27.592 2.83523 27.3836 2.91477C27.1791 2.99053 27.0276 3.0947 26.9291 3.22727C26.8306 3.35985 26.7795 3.51136 26.7757 3.68182C26.7681 3.82197 26.7927 3.94886 26.8495 4.0625C26.9101 4.17235 27.0048 4.27273 27.1336 4.36364C27.2624 4.45076 27.4272 4.5303 27.628 4.60227C27.8287 4.67424 28.0673 4.73864 28.3439 4.79545L29.2984 5C29.9423 5.13636 30.4935 5.31629 30.9518 5.53977C31.4101 5.76326 31.7851 6.02652 32.0768 6.32955C32.3685 6.62879 32.5825 6.96591 32.7189 7.34091C32.859 7.71591 32.931 8.125 32.9348 8.56818C32.931 9.33333 32.7397 9.98106 32.3609 10.5114C31.9821 11.0417 31.4405 11.4451 30.7359 11.7216C30.0351 11.9981 29.1923 12.1364 28.2075 12.1364C27.1961 12.1364 26.3136 11.9867 25.5598 11.6875C24.8098 11.3883 24.2264 10.928 23.8098 10.3068C23.3969 9.68182 23.1886 8.88258 23.1848 7.90909H26.1848C26.2037 8.26515 26.2927 8.56439 26.4518 8.80682C26.6109 9.04924 26.8344 9.23295 27.1223 9.35795C27.4139 9.48295 27.7605 9.54545 28.162 9.54545C28.4992 9.54545 28.7814 9.50379 29.0086 9.42045C29.2359 9.33712 29.4083 9.22159 29.5257 9.07386C29.6431 8.92614 29.7037 8.75758 29.7075 8.56818C29.7037 8.39015 29.645 8.23485 29.5314 8.10227C29.4215 7.96591 29.2397 7.8447 28.9859 7.73864C28.7321 7.62879 28.3893 7.52652 27.9575 7.43182L26.7984 7.18182C25.7681 6.95833 24.9556 6.58523 24.3609 6.0625C23.77 5.53598 23.4764 4.81818 23.4802 3.90909C23.4764 3.17045 23.6734 2.52462 24.0711 1.97159C24.4726 1.41477 25.0276 0.98106 25.7359 0.670454C26.448 0.359848 27.2643 0.204545 28.1848 0.204545C29.1242 0.204545 29.9367 0.361742 30.6223 0.676136C31.3079 0.99053 31.8363 1.43371 32.2075 2.00568C32.5825 2.57386 32.7719 3.23864 32.7757 4H29.753ZM45.0001 4.72727H41.7956C41.7728 4.46212 41.7122 4.22159 41.6137 4.00568C41.5191 3.78977 41.3865 3.60417 41.216 3.44886C41.0494 3.28977 40.8467 3.16856 40.6081 3.08523C40.3694 2.99811 40.0986 2.95455 39.7956 2.95455C39.2653 2.95455 38.8164 3.08333 38.449 3.34091C38.0853 3.59848 37.8088 3.9678 37.6194 4.44886C37.4338 4.92992 37.341 5.50758 37.341 6.18182C37.341 6.89394 37.4357 7.49053 37.6251 7.97159C37.8183 8.44886 38.0967 8.80871 38.4603 9.05114C38.824 9.28977 39.2615 9.40909 39.7728 9.40909C40.0645 9.40909 40.3259 9.37311 40.5569 9.30114C40.788 9.22538 40.9887 9.11742 41.1592 8.97727C41.3297 8.83712 41.4679 8.66856 41.574 8.47159C41.6838 8.27083 41.7577 8.04545 41.7956 7.79545L45.0001 7.81818C44.9622 8.31061 44.824 8.8125 44.5853 9.32386C44.3467 9.83144 44.0077 10.3011 43.5683 10.733C43.1327 11.161 42.5929 11.5057 41.949 11.767C41.305 12.0284 40.5569 12.1591 39.7047 12.1591C38.6365 12.1591 37.6781 11.9299 36.8297 11.4716C35.985 11.0133 35.3164 10.339 34.824 9.44886C34.3353 8.55871 34.091 7.4697 34.091 6.18182C34.091 4.88636 34.341 3.79545 34.841 2.90909C35.341 2.01894 36.0153 1.34659 36.8637 0.892045C37.7122 0.433712 38.6592 0.204545 39.7047 0.204545C40.4395 0.204545 41.1156 0.304924 41.7331 0.505681C42.3505 0.706439 42.8922 1 43.3581 1.38636C43.824 1.76894 44.199 2.24053 44.4831 2.80114C44.7672 3.36174 44.9395 4.00379 45.0001 4.72727ZM45.9561 0.363636H49.4788L51.7515 5.09091H51.8424L54.1152 0.363636H57.6379L53.3652 8.34091V12H50.2288V8.34091L45.9561 0.363636ZM68.7189 4.72727H65.5143C65.4916 4.46212 65.431 4.22159 65.3325 4.00568C65.2378 3.78977 65.1052 3.60417 64.9348 3.44886C64.7681 3.28977 64.5655 3.16856 64.3268 3.08523C64.0882 2.99811 63.8173 2.95455 63.5143 2.95455C62.984 2.95455 62.5351 3.08333 62.1677 3.34091C61.8041 3.59848 61.5276 3.9678 61.3382 4.44886C61.1526 4.92992 61.0598 5.50758 61.0598 6.18182C61.0598 6.89394 61.1545 7.49053 61.3439 7.97159C61.537 8.44886 61.8155 8.80871 62.1791 9.05114C62.5427 9.28977 62.9802 9.40909 63.4916 9.40909C63.7833 9.40909 64.0446 9.37311 64.2757 9.30114C64.5067 9.22538 64.7075 9.11742 64.878 8.97727C65.0484 8.83712 65.1867 8.66856 65.2927 8.47159C65.4026 8.27083 65.4764 8.04545 65.5143 7.79545L68.7189 7.81818C68.681 8.31061 68.5427 8.8125 68.3041 9.32386C68.0655 9.83144 67.7264 10.3011 67.287 10.733C66.8514 11.161 66.3117 11.5057 65.6677 11.767C65.0238 12.0284 64.2757 12.1591 63.4234 12.1591C62.3552 12.1591 61.3969 11.9299 60.5484 11.4716C59.7037 11.0133 59.0351 10.339 58.5427 9.44886C58.0541 8.55871 57.8098 7.4697 57.8098 6.18182C57.8098 4.88636 58.0598 3.79545 58.5598 2.90909C59.0598 2.01894 59.734 1.34659 60.5825 0.892045C61.431 0.433712 62.378 0.204545 63.4234 0.204545C64.1583 0.204545 64.8344 0.304924 65.4518 0.505681C66.0692 0.706439 66.6109 1 67.0768 1.38636C67.5427 1.76894 67.9177 2.24053 68.2018 2.80114C68.4859 3.36174 68.6583 4.00379 68.7189 4.72727ZM70.1521 12V0.363636H73.3112V9.45455H78.0157V12H70.1521ZM79.2927 12V0.363636H87.6791V2.90909H82.4518V4.90909H87.2473V7.45455H82.4518V9.45455H87.6564V12H79.2927Z" fill="white"/>
</svg>
