<svg width="122" height="48" viewBox="0 0 122 48" fill="none" xmlns="http://www.w3.org/2000/svg">
  <path fill-rule="evenodd" clip-rule="evenodd"
    d="M77.0587 5.91173L83.6367 16.408C87.7592 13.7388 92.5758 12.341 97.4869 12.3881C101.635 12.3881 105.468 14.6012 107.542 18.1931C109.616 21.7854 109.616 26.2117 107.542 29.804C105.468 33.3959 101.635 35.609 97.4869 35.609C95.1353 35.6507 92.8031 35.1781 90.6532 34.2243C87.3448 32.6018 84.4842 30.1935 82.3211 27.21C78.2062 21.9111 63.5308 2.6465 63.3821 2.45245L53.529 9.95899C53.6752 10.1534 68.3868 29.4623 72.5349 34.8065C75.9368 39.4008 80.4204 43.0841 85.5881 45.5286C89.3317 47.1975 93.3911 48.0395 97.4895 47.9971C110.743 47.9971 121.488 37.2528 121.488 23.9989C121.488 10.7454 110.743 0.0010693 97.4895 0.0010693C90.2497 -0.0537462 83.151 2.00004 77.0587 5.91173ZM23.9995 47.999C31.2382 48.053 38.3361 45.9996 44.4277 42.0894L37.8497 31.5924C33.7268 34.2613 28.9107 35.6594 23.9995 35.6123C19.8514 35.6123 16.0186 33.3992 13.9447 29.8069C11.8705 26.215 11.8705 21.7887 13.9447 18.1968C16.0186 14.6045 19.8514 12.3914 23.9995 12.3914C26.3511 12.3501 28.6834 12.823 30.8333 13.7764C34.1423 15.399 37.0037 17.8072 39.1672 20.7907C43.2813 26.0896 57.9567 45.3546 58.1047 45.5483L67.9585 38.0418C67.8123 37.847 53.1007 18.5389 48.9519 13.1943C45.5503 8.60029 41.0671 4.91737 35.9001 2.47256C32.1565 0.803223 28.0968 -0.0387531 23.998 0.0036318C10.7442 0.0036318 0 10.748 0 24.0018C0 37.2553 10.7442 47.9997 23.998 47.9997L23.9995 47.999Z"
    fill="white" />
</svg>