<svg width="324" height="198" viewBox="0 0 324 198" fill="none" xmlns="http://www.w3.org/2000/svg">
<path fill-rule="evenodd" clip-rule="evenodd" d="M205.506 15.7646L223.048 43.7545C234.041 36.6367 246.885 32.9092 259.982 33.0349C271.043 33.0349 281.264 38.9365 286.795 48.515C292.326 58.0945 292.326 69.8978 286.795 79.4772C281.264 89.0557 271.043 94.9573 259.982 94.9573C253.711 95.0684 247.491 93.8084 241.758 91.2649C232.936 86.9381 225.307 80.516 219.539 72.5601C208.566 58.4297 169.432 7.05734 169.035 6.53987L142.76 26.5573C143.15 27.0758 182.381 78.566 193.443 92.8173C202.515 105.069 214.471 114.891 228.251 121.409C238.234 125.86 249.059 128.105 259.988 127.992C295.332 127.992 323.984 99.3407 323.984 63.9971C323.984 28.6545 295.332 0.00285146 259.988 0.00285146C240.682 -0.143323 221.752 5.33345 205.506 15.7646ZM64.015 127.997C83.3182 128.141 102.246 122.666 118.49 112.238L100.949 84.2465C89.9546 91.3634 77.1115 95.0918 64.015 94.9661C52.9533 94.9661 42.7327 89.0645 37.2023 79.485C31.671 69.9066 31.671 58.1033 37.2023 48.5248C42.7327 38.9453 52.9533 33.0437 64.015 33.0437C70.286 32.9336 76.5053 34.1946 82.2384 36.7371C91.0626 41.0639 98.693 47.486 104.462 55.4419C115.433 69.5723 154.568 120.946 154.962 121.462L181.239 101.445C180.849 100.925 141.618 49.4369 130.555 35.1847C121.484 22.9341 109.529 13.113 95.75 6.5935C85.7671 2.14193 74.9413 -0.103341 64.0111 0.00968479C28.6675 0.00968479 0.0164032 28.6613 0.0164032 64.0049C0.0164032 99.3475 28.6675 127.999 64.0111 127.999L64.015 127.997Z" fill="white"/>
<path d="M122.631 154.727C122.631 156.313 122.33 157.663 121.729 158.776C121.132 159.888 120.318 160.738 119.286 161.325C118.258 161.908 117.103 162.199 115.82 162.199C114.527 162.199 113.367 161.905 112.339 161.318C111.312 160.731 110.5 159.881 109.903 158.768C109.307 157.656 109.009 156.309 109.009 154.727C109.009 153.141 109.307 151.792 109.903 150.679C110.5 149.566 111.312 148.719 112.339 148.136C113.367 147.549 114.527 147.256 115.82 147.256C117.103 147.256 118.258 147.549 119.286 148.136C120.318 148.719 121.132 149.566 121.729 150.679C122.33 151.792 122.631 153.141 122.631 154.727ZM119.513 154.727C119.513 153.7 119.359 152.833 119.051 152.128C118.748 151.422 118.32 150.887 117.766 150.523C117.212 150.158 116.563 149.976 115.82 149.976C115.076 149.976 114.428 150.158 113.874 150.523C113.32 150.887 112.889 151.422 112.581 152.128C112.278 152.833 112.126 153.7 112.126 154.727C112.126 155.755 112.278 156.621 112.581 157.327C112.889 158.032 113.32 158.567 113.874 158.932C114.428 159.296 115.076 159.479 115.82 159.479C116.563 159.479 117.212 159.296 117.766 158.932C118.32 158.567 118.748 158.032 119.051 157.327C119.359 156.621 119.513 155.755 119.513 154.727ZM124.709 162V147.455H130.447C131.551 147.455 132.49 147.665 133.267 148.087C134.043 148.503 134.635 149.083 135.043 149.827C135.454 150.565 135.66 151.418 135.66 152.384C135.66 153.349 135.452 154.202 135.035 154.94C134.619 155.679 134.015 156.254 133.224 156.666C132.438 157.078 131.487 157.284 130.369 157.284H126.712V154.82H129.872C130.464 154.82 130.952 154.718 131.335 154.514C131.723 154.306 132.012 154.019 132.202 153.655C132.396 153.286 132.493 152.862 132.493 152.384C132.493 151.901 132.396 151.479 132.202 151.119C132.012 150.755 131.723 150.473 131.335 150.274C130.947 150.071 130.454 149.969 129.858 149.969H127.784V162H124.709ZM145.349 151.638C145.292 151.065 145.048 150.62 144.617 150.303C144.186 149.985 143.601 149.827 142.863 149.827C142.361 149.827 141.937 149.898 141.591 150.04C141.246 150.177 140.981 150.369 140.796 150.615C140.616 150.861 140.526 151.141 140.526 151.453C140.517 151.714 140.571 151.941 140.689 152.135C140.813 152.329 140.981 152.497 141.194 152.639C141.407 152.777 141.653 152.897 141.932 153.001C142.212 153.101 142.51 153.186 142.827 153.257L144.134 153.57C144.769 153.712 145.351 153.901 145.881 154.138C146.412 154.375 146.871 154.666 147.259 155.011C147.647 155.357 147.948 155.764 148.161 156.233C148.379 156.702 148.49 157.239 148.495 157.845C148.49 158.735 148.263 159.507 147.813 160.161C147.368 160.809 146.724 161.313 145.881 161.673C145.043 162.028 144.032 162.206 142.849 162.206C141.674 162.206 140.652 162.026 139.78 161.666C138.914 161.306 138.237 160.774 137.749 160.068C137.266 159.358 137.013 158.48 136.989 157.433H139.965C139.998 157.921 140.138 158.328 140.384 158.655C140.635 158.977 140.969 159.221 141.386 159.386C141.807 159.547 142.283 159.628 142.813 159.628C143.334 159.628 143.786 159.552 144.17 159.401C144.558 159.249 144.859 159.038 145.072 158.768C145.285 158.499 145.391 158.188 145.391 157.838C145.391 157.511 145.294 157.237 145.1 157.014C144.911 156.792 144.631 156.602 144.262 156.446C143.897 156.29 143.45 156.148 142.92 156.02L141.336 155.622C140.109 155.324 139.141 154.857 138.431 154.223C137.721 153.589 137.368 152.734 137.373 151.659C137.368 150.778 137.602 150.009 138.076 149.351C138.554 148.693 139.21 148.179 140.043 147.81C140.877 147.44 141.823 147.256 142.884 147.256C143.964 147.256 144.906 147.44 145.711 147.81C146.52 148.179 147.15 148.693 147.6 149.351C148.05 150.009 148.282 150.771 148.296 151.638H145.349ZM163.197 152.547H160.086C160.03 152.144 159.914 151.787 159.738 151.474C159.563 151.157 159.338 150.887 159.064 150.665C158.789 150.442 158.472 150.272 158.112 150.153C157.757 150.035 157.371 149.976 156.954 149.976C156.201 149.976 155.546 150.163 154.987 150.537C154.428 150.906 153.995 151.446 153.687 152.156C153.38 152.862 153.226 153.719 153.226 154.727C153.226 155.764 153.38 156.635 153.687 157.341C154 158.046 154.435 158.579 154.994 158.939C155.553 159.299 156.199 159.479 156.933 159.479C157.345 159.479 157.726 159.424 158.076 159.315C158.432 159.206 158.746 159.048 159.021 158.839C159.296 158.626 159.523 158.368 159.703 158.065C159.888 157.762 160.015 157.417 160.086 157.028L163.197 157.043C163.117 157.71 162.916 158.354 162.594 158.974C162.276 159.59 161.848 160.142 161.308 160.629C160.773 161.112 160.134 161.496 159.39 161.78C158.652 162.059 157.816 162.199 156.883 162.199C155.586 162.199 154.426 161.905 153.403 161.318C152.385 160.731 151.58 159.881 150.988 158.768C150.401 157.656 150.108 156.309 150.108 154.727C150.108 153.141 150.406 151.792 151.003 150.679C151.599 149.566 152.409 148.719 153.432 148.136C154.454 147.549 155.605 147.256 156.883 147.256C157.726 147.256 158.507 147.374 159.227 147.611C159.951 147.848 160.593 148.193 161.152 148.648C161.71 149.098 162.165 149.649 162.515 150.303C162.871 150.956 163.098 151.704 163.197 152.547ZM164.35 147.455H167.795L171.112 153.719H171.254L174.57 147.455H178.015L172.71 156.858V162H169.656V156.858L164.35 147.455ZM191.45 152.547H188.339C188.282 152.144 188.166 151.787 187.991 151.474C187.816 151.157 187.591 150.887 187.316 150.665C187.041 150.442 186.724 150.272 186.364 150.153C186.009 150.035 185.623 149.976 185.207 149.976C184.454 149.976 183.798 150.163 183.239 150.537C182.681 150.906 182.247 151.446 181.94 152.156C181.632 152.862 181.478 153.719 181.478 154.727C181.478 155.764 181.632 156.635 181.94 157.341C182.252 158.046 182.688 158.579 183.246 158.939C183.805 159.299 184.451 159.479 185.185 159.479C185.597 159.479 185.978 159.424 186.329 159.315C186.684 159.206 186.999 159.048 187.273 158.839C187.548 158.626 187.775 158.368 187.955 158.065C188.14 157.762 188.268 157.417 188.339 157.028L191.45 157.043C191.369 157.71 191.168 158.354 190.846 158.974C190.529 159.59 190.1 160.142 189.56 160.629C189.025 161.112 188.386 161.496 187.643 161.78C186.904 162.059 186.068 162.199 185.136 162.199C183.838 162.199 182.678 161.905 181.656 161.318C180.638 160.731 179.833 159.881 179.241 158.768C178.654 157.656 178.36 156.309 178.36 154.727C178.36 153.141 178.658 151.792 179.255 150.679C179.852 149.566 180.661 148.719 181.684 148.136C182.707 147.549 183.857 147.256 185.136 147.256C185.978 147.256 186.76 147.374 187.479 147.611C188.204 147.848 188.845 148.193 189.404 148.648C189.963 149.098 190.417 149.649 190.768 150.303C191.123 150.956 191.35 151.704 191.45 152.547ZM193.455 162V147.455H196.53V159.464H202.766V162H193.455ZM204.602 162V147.455H214.404V149.99H207.678V153.456H213.899V155.991H207.678V159.464H214.432V162H204.602Z" fill="white"/>
<path d="M11.712 190H10.592L4.39999 180.592V190H3.27999V178.816H4.39999L10.592 188.208V178.816H11.712V190ZM17.7527 190.128C16.9314 190.128 16.1901 189.947 15.5287 189.584C14.8781 189.211 14.3607 188.688 13.9767 188.016C13.6034 187.333 13.4167 186.539 13.4167 185.632C13.4167 184.725 13.6087 183.936 13.9927 183.264C14.3767 182.581 14.8994 182.059 15.5607 181.696C16.2221 181.323 16.9634 181.136 17.7847 181.136C18.6061 181.136 19.3474 181.323 20.0087 181.696C20.6807 182.059 21.2034 182.581 21.5767 183.264C21.9607 183.936 22.1527 184.725 22.1527 185.632C22.1527 186.528 21.9607 187.317 21.5767 188C21.1927 188.683 20.6647 189.211 19.9927 189.584C19.3207 189.947 18.5741 190.128 17.7527 190.128ZM17.7527 189.152C18.3287 189.152 18.8621 189.024 19.3527 188.768C19.8434 188.501 20.2381 188.107 20.5367 187.584C20.8461 187.051 21.0007 186.4 21.0007 185.632C21.0007 184.864 20.8514 184.219 20.5527 183.696C20.2541 183.163 19.8594 182.768 19.3687 182.512C18.8781 182.245 18.3447 182.112 17.7687 182.112C17.1927 182.112 16.6594 182.245 16.1687 182.512C15.6781 182.768 15.2834 183.163 14.9847 183.696C14.6967 184.219 14.5527 184.864 14.5527 185.632C14.5527 186.4 14.6967 187.051 14.9847 187.584C15.2834 188.107 15.6727 188.501 16.1527 188.768C16.6434 189.024 17.1767 189.152 17.7527 189.152ZM27.433 185.616C27.433 184.72 27.6143 183.936 27.977 183.264C28.3397 182.581 28.8357 182.059 29.465 181.696C30.105 181.323 30.825 181.136 31.625 181.136C32.393 181.136 33.0863 181.323 33.705 181.696C34.3237 182.069 34.777 182.555 35.065 183.152V178.16H36.185V190H35.065V188.048C34.7983 188.656 34.361 189.157 33.753 189.552C33.145 189.936 32.4303 190.128 31.609 190.128C30.809 190.128 30.089 189.941 29.449 189.568C28.8197 189.195 28.3237 188.667 27.961 187.984C27.609 187.301 27.433 186.512 27.433 185.616ZM35.065 185.632C35.065 184.928 34.921 184.309 34.633 183.776C34.345 183.243 33.9503 182.832 33.449 182.544C32.9583 182.256 32.4143 182.112 31.817 182.112C31.1983 182.112 30.6437 182.251 30.153 182.528C29.6623 182.805 29.273 183.211 28.985 183.744C28.7077 184.267 28.569 184.891 28.569 185.616C28.569 186.331 28.7077 186.96 28.985 187.504C29.273 188.037 29.6623 188.448 30.153 188.736C30.6437 189.013 31.1983 189.152 31.817 189.152C32.4143 189.152 32.9583 189.008 33.449 188.72C33.9503 188.432 34.345 188.021 34.633 187.488C34.921 186.955 35.065 186.336 35.065 185.632ZM37.9099 185.616C37.9099 184.72 38.0859 183.936 38.4379 183.264C38.8005 182.581 39.2965 182.059 39.9259 181.696C40.5659 181.323 41.2859 181.136 42.0859 181.136C42.9179 181.136 43.6325 181.328 44.2299 181.712C44.8379 182.096 45.2752 182.587 45.5419 183.184V181.264H46.6619V190H45.5419V188.064C45.2645 188.661 44.8219 189.157 44.2139 189.552C43.6165 189.936 42.9019 190.128 42.0699 190.128C41.2805 190.128 40.5659 189.941 39.9259 189.568C39.2965 189.195 38.8005 188.667 38.4379 187.984C38.0859 187.301 37.9099 186.512 37.9099 185.616ZM45.5419 185.632C45.5419 184.928 45.3979 184.309 45.1099 183.776C44.8219 183.243 44.4272 182.832 43.9259 182.544C43.4352 182.256 42.8912 182.112 42.2939 182.112C41.6752 182.112 41.1205 182.251 40.6299 182.528C40.1392 182.805 39.7499 183.211 39.4619 183.744C39.1845 184.267 39.0459 184.891 39.0459 185.616C39.0459 186.331 39.1845 186.96 39.4619 187.504C39.7499 188.037 40.1392 188.448 40.6299 188.736C41.1205 189.013 41.6752 189.152 42.2939 189.152C42.8912 189.152 43.4352 189.008 43.9259 188.72C44.4272 188.432 44.8219 188.021 45.1099 187.488C45.3979 186.955 45.5419 186.336 45.5419 185.632ZM50.3547 182.208V187.632C50.3547 188.165 50.4561 188.533 50.6587 188.736C50.8614 188.939 51.2187 189.04 51.7307 189.04H52.7547V190H51.5547C50.7654 190 50.1787 189.819 49.7947 189.456C49.4107 189.083 49.2187 188.475 49.2187 187.632V182.208H48.0027V181.264H49.2187V179.072H50.3547V181.264H52.7547V182.208H50.3547ZM53.7699 185.616C53.7699 184.72 53.9459 183.936 54.2979 183.264C54.6605 182.581 55.1565 182.059 55.7859 181.696C56.4259 181.323 57.1459 181.136 57.9459 181.136C58.7779 181.136 59.4925 181.328 60.0899 181.712C60.6979 182.096 61.1352 182.587 61.4019 183.184V181.264H62.5219V190H61.4019V188.064C61.1245 188.661 60.6819 189.157 60.0739 189.552C59.4765 189.936 58.7619 190.128 57.9299 190.128C57.1405 190.128 56.4259 189.941 55.7859 189.568C55.1565 189.195 54.6605 188.667 54.2979 187.984C53.9459 187.301 53.7699 186.512 53.7699 185.616ZM61.4019 185.632C61.4019 184.928 61.2579 184.309 60.9699 183.776C60.6819 183.243 60.2872 182.832 59.7859 182.544C59.2952 182.256 58.7512 182.112 58.1539 182.112C57.5352 182.112 56.9805 182.251 56.4899 182.528C55.9992 182.805 55.6099 183.211 55.3219 183.744C55.0445 184.267 54.9059 184.891 54.9059 185.616C54.9059 186.331 55.0445 186.96 55.3219 187.504C55.6099 188.037 55.9992 188.448 56.4899 188.736C56.9805 189.013 57.5352 189.152 58.1539 189.152C58.7512 189.152 59.2952 189.008 59.7859 188.72C60.2872 188.432 60.6819 188.021 60.9699 187.488C61.2579 186.955 61.4019 186.336 61.4019 185.632ZM80.3494 181.264L77.6134 190H76.4934L74.0774 182.672L71.6614 190H70.5254L67.7894 181.264H68.9254L71.1014 188.864L73.5494 181.264H74.6694L77.0854 188.88L79.2454 181.264H80.3494ZM82.1162 179.616C81.8922 179.616 81.7002 179.536 81.5402 179.376C81.3802 179.216 81.3002 179.019 81.3002 178.784C81.3002 178.549 81.3802 178.357 81.5402 178.208C81.7002 178.048 81.8922 177.968 82.1162 177.968C82.3402 177.968 82.5322 178.048 82.6922 178.208C82.8522 178.357 82.9322 178.549 82.9322 178.784C82.9322 179.019 82.8522 179.216 82.6922 179.376C82.5322 179.536 82.3402 179.616 82.1162 179.616ZM82.6762 181.264V190H81.5562V181.264H82.6762ZM86.0125 178.16V190H84.8925V178.16H86.0125ZM89.3487 178.16V190H88.2287V178.16H89.3487ZM96.7396 183.2C97.0276 182.592 97.4703 182.096 98.0676 181.712C98.6756 181.328 99.3903 181.136 100.212 181.136C101.012 181.136 101.726 181.323 102.356 181.696C102.985 182.059 103.476 182.581 103.828 183.264C104.19 183.936 104.372 184.72 104.372 185.616C104.372 186.512 104.19 187.301 103.828 187.984C103.476 188.667 102.98 189.195 102.34 189.568C101.71 189.941 101.001 190.128 100.212 190.128C99.3796 190.128 98.6596 189.941 98.0516 189.568C97.4543 189.184 97.0169 188.688 96.7396 188.08V190H95.6356V178.16H96.7396V183.2ZM103.236 185.616C103.236 184.891 103.092 184.267 102.804 183.744C102.526 183.211 102.142 182.805 101.652 182.528C101.161 182.251 100.606 182.112 99.9876 182.112C99.3903 182.112 98.8409 182.256 98.3396 182.544C97.8489 182.832 97.4596 183.243 97.1716 183.776C96.8836 184.309 96.7396 184.928 96.7396 185.632C96.7396 186.336 96.8836 186.955 97.1716 187.488C97.4596 188.021 97.8489 188.432 98.3396 188.72C98.8409 189.008 99.3903 189.152 99.9876 189.152C100.606 189.152 101.161 189.013 101.652 188.736C102.142 188.448 102.526 188.037 102.804 187.504C103.092 186.96 103.236 186.331 103.236 185.616ZM114.016 185.184C114.016 185.568 114.006 185.861 113.984 186.064H106.736C106.768 186.725 106.928 187.291 107.216 187.76C107.504 188.229 107.883 188.587 108.352 188.832C108.822 189.067 109.334 189.184 109.888 189.184C110.614 189.184 111.222 189.008 111.712 188.656C112.214 188.304 112.544 187.829 112.704 187.232H113.888C113.675 188.085 113.216 188.784 112.512 189.328C111.819 189.861 110.944 190.128 109.888 190.128C109.067 190.128 108.331 189.947 107.68 189.584C107.03 189.211 106.518 188.688 106.144 188.016C105.782 187.333 105.6 186.539 105.6 185.632C105.6 184.725 105.782 183.931 106.144 183.248C106.507 182.565 107.014 182.043 107.664 181.68C108.315 181.317 109.056 181.136 109.888 181.136C110.72 181.136 111.446 181.317 112.064 181.68C112.694 182.043 113.174 182.533 113.504 183.152C113.846 183.76 114.016 184.437 114.016 185.184ZM112.88 185.152C112.891 184.501 112.758 183.947 112.48 183.488C112.214 183.029 111.846 182.683 111.376 182.448C110.907 182.213 110.395 182.096 109.84 182.096C109.008 182.096 108.299 182.363 107.712 182.896C107.126 183.429 106.8 184.181 106.736 185.152H112.88ZM120.936 178.16V190H119.816V178.16H120.936ZM126.976 190.128C126.155 190.128 125.414 189.947 124.752 189.584C124.102 189.211 123.584 188.688 123.2 188.016C122.827 187.333 122.64 186.539 122.64 185.632C122.64 184.725 122.832 183.936 123.216 183.264C123.6 182.581 124.123 182.059 124.784 181.696C125.446 181.323 126.187 181.136 127.008 181.136C127.83 181.136 128.571 181.323 129.232 181.696C129.904 182.059 130.427 182.581 130.8 183.264C131.184 183.936 131.376 184.725 131.376 185.632C131.376 186.528 131.184 187.317 130.8 188C130.416 188.683 129.888 189.211 129.216 189.584C128.544 189.947 127.798 190.128 126.976 190.128ZM126.976 189.152C127.552 189.152 128.086 189.024 128.576 188.768C129.067 188.501 129.462 188.107 129.76 187.584C130.07 187.051 130.224 186.4 130.224 185.632C130.224 184.864 130.075 184.219 129.776 183.696C129.478 183.163 129.083 182.768 128.592 182.512C128.102 182.245 127.568 182.112 126.992 182.112C126.416 182.112 125.883 182.245 125.392 182.512C124.902 182.768 124.507 183.163 124.208 183.696C123.92 184.219 123.776 184.864 123.776 185.632C123.776 186.4 123.92 187.051 124.208 187.584C124.507 188.107 124.896 188.501 125.376 188.768C125.867 189.024 126.4 189.152 126.976 189.152ZM136.106 190.128C135.103 190.128 134.282 189.899 133.642 189.44C133.013 188.971 132.661 188.336 132.586 187.536H133.738C133.791 188.027 134.021 188.427 134.426 188.736C134.842 189.035 135.397 189.184 136.09 189.184C136.698 189.184 137.173 189.04 137.514 188.752C137.866 188.464 138.042 188.107 138.042 187.68C138.042 187.381 137.946 187.136 137.754 186.944C137.562 186.752 137.317 186.603 137.018 186.496C136.73 186.379 136.335 186.256 135.834 186.128C135.183 185.957 134.655 185.787 134.25 185.616C133.845 185.445 133.498 185.195 133.21 184.864C132.933 184.523 132.794 184.069 132.794 183.504C132.794 183.077 132.922 182.683 133.178 182.32C133.434 181.957 133.797 181.669 134.266 181.456C134.735 181.243 135.269 181.136 135.866 181.136C136.805 181.136 137.562 181.376 138.138 181.856C138.714 182.325 139.023 182.976 139.066 183.808H137.946C137.914 183.296 137.711 182.885 137.338 182.576C136.975 182.256 136.474 182.096 135.834 182.096C135.269 182.096 134.81 182.229 134.458 182.496C134.106 182.763 133.93 183.093 133.93 183.488C133.93 183.829 134.031 184.112 134.234 184.336C134.447 184.549 134.709 184.72 135.018 184.848C135.327 184.965 135.743 185.099 136.266 185.248C136.895 185.419 137.397 185.584 137.77 185.744C138.143 185.904 138.463 186.139 138.73 186.448C138.997 186.757 139.135 187.168 139.146 187.68C139.146 188.149 139.018 188.571 138.762 188.944C138.506 189.307 138.149 189.595 137.69 189.808C137.231 190.021 136.703 190.128 136.106 190.128ZM142.39 182.208V187.632C142.39 188.165 142.492 188.533 142.694 188.736C142.897 188.939 143.254 189.04 143.766 189.04H144.79V190H143.59C142.801 190 142.214 189.819 141.83 189.456C141.446 189.083 141.254 188.475 141.254 187.632V182.208H140.038V181.264H141.254V179.072H142.39V181.264H144.79V182.208H142.39ZM147.341 188.144L145.677 192.336H144.909L146.093 188.144H147.341ZM156.93 181.104C157.975 181.104 158.828 181.429 159.49 182.08C160.151 182.72 160.482 183.653 160.482 184.88V190H159.378V185.008C159.378 184.059 159.138 183.333 158.658 182.832C158.188 182.331 157.543 182.08 156.722 182.08C155.879 182.08 155.207 182.347 154.706 182.88C154.204 183.413 153.954 184.197 153.954 185.232V190H152.834V181.264H153.954V182.752C154.231 182.219 154.631 181.813 155.154 181.536C155.676 181.248 156.268 181.104 156.93 181.104ZM170.543 185.184C170.543 185.568 170.532 185.861 170.511 186.064H163.263C163.295 186.725 163.455 187.291 163.743 187.76C164.031 188.229 164.409 188.587 164.879 188.832C165.348 189.067 165.86 189.184 166.415 189.184C167.14 189.184 167.748 189.008 168.239 188.656C168.74 188.304 169.071 187.829 169.231 187.232H170.415C170.201 188.085 169.743 188.784 169.039 189.328C168.345 189.861 167.471 190.128 166.415 190.128C165.593 190.128 164.857 189.947 164.207 189.584C163.556 189.211 163.044 188.688 162.671 188.016C162.308 187.333 162.127 186.539 162.127 185.632C162.127 184.725 162.308 183.931 162.671 183.248C163.033 182.565 163.54 182.043 164.191 181.68C164.841 181.317 165.583 181.136 166.415 181.136C167.247 181.136 167.972 181.317 168.591 181.68C169.22 182.043 169.7 182.533 170.031 183.152C170.372 183.76 170.543 184.437 170.543 185.184ZM169.407 185.152C169.417 184.501 169.284 183.947 169.007 183.488C168.74 183.029 168.372 182.683 167.903 182.448C167.433 182.213 166.921 182.096 166.367 182.096C165.535 182.096 164.825 182.363 164.239 182.896C163.652 183.429 163.327 184.181 163.263 185.152H169.407ZM175.376 188.912L178.32 181.264H179.504L176 190H174.736L171.232 181.264H172.432L175.376 188.912ZM188.606 185.184C188.606 185.568 188.595 185.861 188.574 186.064H181.326C181.358 186.725 181.518 187.291 181.806 187.76C182.094 188.229 182.473 188.587 182.942 188.832C183.411 189.067 183.923 189.184 184.478 189.184C185.203 189.184 185.811 189.008 186.302 188.656C186.803 188.304 187.134 187.829 187.294 187.232H188.478C188.265 188.085 187.806 188.784 187.102 189.328C186.409 189.861 185.534 190.128 184.478 190.128C183.657 190.128 182.921 189.947 182.27 189.584C181.619 189.211 181.107 188.688 180.734 188.016C180.371 187.333 180.19 186.539 180.19 185.632C180.19 184.725 180.371 183.931 180.734 183.248C181.097 182.565 181.603 182.043 182.254 181.68C182.905 181.317 183.646 181.136 184.478 181.136C185.31 181.136 186.035 181.317 186.654 181.68C187.283 182.043 187.763 182.533 188.094 183.152C188.435 183.76 188.606 184.437 188.606 185.184ZM187.47 185.152C187.481 184.501 187.347 183.947 187.07 183.488C186.803 183.029 186.435 182.683 185.966 182.448C185.497 182.213 184.985 182.096 184.43 182.096C183.598 182.096 182.889 182.363 182.302 182.896C181.715 183.429 181.39 184.181 181.326 185.152H187.47ZM191.455 182.816C191.7 182.272 192.074 181.851 192.575 181.552C193.087 181.253 193.711 181.104 194.447 181.104V182.272H194.143C193.332 182.272 192.682 182.491 192.191 182.928C191.7 183.365 191.455 184.096 191.455 185.12V190H190.335V181.264H191.455V182.816ZM207.082 181.264L201.898 194.112H200.73L202.426 189.952L198.842 181.264H200.074L203.05 188.72L205.93 181.264H207.082ZM212.105 190.128C211.284 190.128 210.543 189.947 209.881 189.584C209.231 189.211 208.713 188.688 208.329 188.016C207.956 187.333 207.769 186.539 207.769 185.632C207.769 184.725 207.961 183.936 208.345 183.264C208.729 182.581 209.252 182.059 209.913 181.696C210.575 181.323 211.316 181.136 212.137 181.136C212.959 181.136 213.7 181.323 214.361 181.696C215.033 182.059 215.556 182.581 215.929 183.264C216.313 183.936 216.505 184.725 216.505 185.632C216.505 186.528 216.313 187.317 215.929 188C215.545 188.683 215.017 189.211 214.345 189.584C213.673 189.947 212.927 190.128 212.105 190.128ZM212.105 189.152C212.681 189.152 213.215 189.024 213.705 188.768C214.196 188.501 214.591 188.107 214.889 187.584C215.199 187.051 215.353 186.4 215.353 185.632C215.353 184.864 215.204 184.219 214.905 183.696C214.607 183.163 214.212 182.768 213.721 182.512C213.231 182.245 212.697 182.112 212.121 182.112C211.545 182.112 211.012 182.245 210.521 182.512C210.031 182.768 209.636 183.163 209.337 183.696C209.049 184.219 208.905 184.864 208.905 185.632C208.905 186.4 209.049 187.051 209.337 187.584C209.636 188.107 210.025 188.501 210.505 188.768C210.996 189.024 211.529 189.152 212.105 189.152ZM225.795 181.264V190H224.675V188.464C224.419 189.008 224.024 189.424 223.491 189.712C222.958 190 222.36 190.144 221.699 190.144C220.654 190.144 219.8 189.824 219.139 189.184C218.478 188.533 218.147 187.595 218.147 186.368V181.264H219.251V186.24C219.251 187.189 219.486 187.915 219.955 188.416C220.435 188.917 221.086 189.168 221.907 189.168C222.75 189.168 223.422 188.901 223.923 188.368C224.424 187.835 224.675 187.051 224.675 186.016V181.264H225.795ZM243.622 181.264L240.886 190H239.766L237.35 182.672L234.934 190H233.798L231.062 181.264H232.198L234.374 188.864L236.822 181.264H237.942L240.358 188.88L242.518 181.264H243.622ZM245.389 179.616C245.165 179.616 244.973 179.536 244.813 179.376C244.653 179.216 244.573 179.019 244.573 178.784C244.573 178.549 244.653 178.357 244.813 178.208C244.973 178.048 245.165 177.968 245.389 177.968C245.613 177.968 245.805 178.048 245.965 178.208C246.125 178.357 246.205 178.549 246.205 178.784C246.205 179.019 246.125 179.216 245.965 179.376C245.805 179.536 245.613 179.616 245.389 179.616ZM245.949 181.264V190H244.829V181.264H245.949ZM249.286 178.16V190H248.166V178.16H249.286ZM252.622 178.16V190H251.502V178.16H252.622ZM260.013 183.2C260.301 182.592 260.743 182.096 261.341 181.712C261.949 181.328 262.663 181.136 263.485 181.136C264.285 181.136 264.999 181.323 265.629 181.696C266.258 182.059 266.749 182.581 267.101 183.264C267.463 183.936 267.645 184.72 267.645 185.616C267.645 186.512 267.463 187.301 267.101 187.984C266.749 188.667 266.253 189.195 265.613 189.568C264.983 189.941 264.274 190.128 263.485 190.128C262.653 190.128 261.933 189.941 261.325 189.568C260.727 189.184 260.29 188.688 260.013 188.08V190H258.909V178.16H260.013V183.2ZM266.509 185.616C266.509 184.891 266.365 184.267 266.077 183.744C265.799 183.211 265.415 182.805 264.925 182.528C264.434 182.251 263.879 182.112 263.261 182.112C262.663 182.112 262.114 182.256 261.613 182.544C261.122 182.832 260.733 183.243 260.445 183.776C260.157 184.309 260.013 184.928 260.013 185.632C260.013 186.336 260.157 186.955 260.445 187.488C260.733 188.021 261.122 188.432 261.613 188.72C262.114 189.008 262.663 189.152 263.261 189.152C263.879 189.152 264.434 189.013 264.925 188.736C265.415 188.448 265.799 188.037 266.077 187.504C266.365 186.96 266.509 186.331 266.509 185.616ZM277.29 185.184C277.29 185.568 277.279 185.861 277.258 186.064H270.01C270.042 186.725 270.202 187.291 270.49 187.76C270.778 188.229 271.156 188.587 271.626 188.832C272.095 189.067 272.607 189.184 273.162 189.184C273.887 189.184 274.495 189.008 274.986 188.656C275.487 188.304 275.818 187.829 275.978 187.232H277.162C276.948 188.085 276.49 188.784 275.786 189.328C275.092 189.861 274.218 190.128 273.162 190.128C272.34 190.128 271.604 189.947 270.954 189.584C270.303 189.211 269.791 188.688 269.418 188.016C269.055 187.333 268.874 186.539 268.874 185.632C268.874 184.725 269.055 183.931 269.418 183.248C269.78 182.565 270.287 182.043 270.938 181.68C271.588 181.317 272.33 181.136 273.162 181.136C273.994 181.136 274.719 181.317 275.338 181.68C275.967 182.043 276.447 182.533 276.778 183.152C277.119 183.76 277.29 184.437 277.29 185.184ZM276.154 185.152C276.164 184.501 276.031 183.947 275.754 183.488C275.487 183.029 275.119 182.683 274.65 182.448C274.18 182.213 273.668 182.096 273.114 182.096C272.282 182.096 271.572 182.363 270.986 182.896C270.399 183.429 270.074 184.181 270.01 185.152H276.154ZM282.577 185.632C282.577 184.725 282.759 183.936 283.121 183.264C283.484 182.581 283.985 182.059 284.625 181.696C285.265 181.323 285.996 181.136 286.817 181.136C287.895 181.136 288.78 181.403 289.473 181.936C290.177 182.469 290.631 183.195 290.833 184.112H289.633C289.484 183.483 289.159 182.992 288.657 182.64C288.167 182.277 287.553 182.096 286.817 182.096C286.231 182.096 285.703 182.229 285.233 182.496C284.764 182.763 284.391 183.163 284.113 183.696C283.847 184.219 283.713 184.864 283.713 185.632C283.713 186.4 283.847 187.051 284.113 187.584C284.391 188.117 284.764 188.517 285.233 188.784C285.703 189.051 286.231 189.184 286.817 189.184C287.553 189.184 288.167 189.008 288.657 188.656C289.159 188.293 289.484 187.792 289.633 187.152H290.833C290.631 188.048 290.177 188.768 289.473 189.312C288.769 189.856 287.884 190.128 286.817 190.128C285.996 190.128 285.265 189.947 284.625 189.584C283.985 189.211 283.484 188.688 283.121 188.016C282.759 187.333 282.577 186.539 282.577 185.632ZM296.406 190.128C295.585 190.128 294.843 189.947 294.182 189.584C293.531 189.211 293.014 188.688 292.63 188.016C292.257 187.333 292.07 186.539 292.07 185.632C292.07 184.725 292.262 183.936 292.646 183.264C293.03 182.581 293.553 182.059 294.214 181.696C294.875 181.323 295.617 181.136 296.438 181.136C297.259 181.136 298.001 181.323 298.662 181.696C299.334 182.059 299.857 182.581 300.23 183.264C300.614 183.936 300.806 184.725 300.806 185.632C300.806 186.528 300.614 187.317 300.23 188C299.846 188.683 299.318 189.211 298.646 189.584C297.974 189.947 297.227 190.128 296.406 190.128ZM296.406 189.152C296.982 189.152 297.515 189.024 298.006 188.768C298.497 188.501 298.891 188.107 299.19 187.584C299.499 187.051 299.654 186.4 299.654 185.632C299.654 184.864 299.505 184.219 299.206 183.696C298.907 183.163 298.513 182.768 298.022 182.512C297.531 182.245 296.998 182.112 296.422 182.112C295.846 182.112 295.313 182.245 294.822 182.512C294.331 182.768 293.937 183.163 293.638 183.696C293.35 184.219 293.206 184.864 293.206 185.632C293.206 186.4 293.35 187.051 293.638 187.584C293.937 188.107 294.326 188.501 294.806 188.768C295.297 189.024 295.83 189.152 296.406 189.152ZM302.015 185.616C302.015 184.72 302.197 183.936 302.559 183.264C302.922 182.581 303.418 182.059 304.047 181.696C304.687 181.323 305.407 181.136 306.207 181.136C306.975 181.136 307.669 181.323 308.287 181.696C308.906 182.069 309.359 182.555 309.647 183.152V178.16H310.767V190H309.647V188.048C309.381 188.656 308.943 189.157 308.335 189.552C307.727 189.936 307.013 190.128 306.191 190.128C305.391 190.128 304.671 189.941 304.031 189.568C303.402 189.195 302.906 188.667 302.543 187.984C302.191 187.301 302.015 186.512 302.015 185.616ZM309.647 185.632C309.647 184.928 309.503 184.309 309.215 183.776C308.927 183.243 308.533 182.832 308.031 182.544C307.541 182.256 306.997 182.112 306.399 182.112C305.781 182.112 305.226 182.251 304.735 182.528C304.245 182.805 303.855 183.211 303.567 183.744C303.29 184.267 303.151 184.891 303.151 185.616C303.151 186.331 303.29 186.96 303.567 187.504C303.855 188.037 304.245 188.448 304.735 188.736C305.226 189.013 305.781 189.152 306.399 189.152C306.997 189.152 307.541 189.008 308.031 188.72C308.533 188.432 308.927 188.021 309.215 187.488C309.503 186.955 309.647 186.336 309.647 185.632ZM320.908 185.184C320.908 185.568 320.898 185.861 320.876 186.064H313.628C313.66 186.725 313.82 187.291 314.108 187.76C314.396 188.229 314.775 188.587 315.244 188.832C315.714 189.067 316.226 189.184 316.78 189.184C317.506 189.184 318.114 189.008 318.604 188.656C319.106 188.304 319.436 187.829 319.596 187.232H320.78C320.567 188.085 320.108 188.784 319.404 189.328C318.711 189.861 317.836 190.128 316.78 190.128C315.959 190.128 315.223 189.947 314.572 189.584C313.922 189.211 313.41 188.688 313.036 188.016C312.674 187.333 312.492 186.539 312.492 185.632C312.492 184.725 312.674 183.931 313.036 183.248C313.399 182.565 313.906 182.043 314.556 181.68C315.207 181.317 315.948 181.136 316.78 181.136C317.612 181.136 318.338 181.317 318.956 181.68C319.586 182.043 320.066 182.533 320.396 183.152C320.738 183.76 320.908 184.437 320.908 185.184ZM319.772 185.152C319.783 184.501 319.65 183.947 319.372 183.488C319.106 183.029 318.738 182.683 318.268 182.448C317.799 182.213 317.287 182.096 316.732 182.096C315.9 182.096 315.191 182.363 314.604 182.896C314.018 183.429 313.692 184.181 313.628 185.152H319.772Z" fill="white"/>
</svg>
